<svg width="238" height="41" viewBox="0 0 238 41" fill="none" xmlns="http://www.w3.org/2000/svg">
<path d="M27.4902 18.6653C27.4902 18.6653 30.3339 27.5613 34.7861 32.23C37.6001 35.1798 42.5362 34.611 44.4249 30.9992C44.4631 30.9228 44.5056 30.8464 44.5438 30.7657C44.6159 30.6172 44.6753 30.4601 44.722 30.2989C44.9173 29.5858 45.469 27.3448 45.8255 23.6565C45.8255 23.6565 46.4325 18.3172 47.536 16.5771C47.8501 16.0805 47.9774 15.4735 47.7694 14.926C47.5827 14.4379 47.1667 13.9923 46.267 13.9753C46.267 13.9753 43.5124 13.4193 41.5728 22.6294C41.5728 22.6294 40.6942 27.7608 40.2528 29.815C40.2528 29.815 39.8156 31.4278 37.8335 29.3736C37.8335 29.3736 34.8243 26.2922 31.013 17.7867L29.659 14.544C29.4129 13.9498 29.0139 13.4193 28.4749 13.0755C27.868 12.6893 27.0955 12.528 26.5692 13.6315C26.2297 14.3403 26.2339 15.168 26.497 15.9065L27.4902 18.6695V18.6653Z" fill="white"/>
<path d="M54.2251 16.1781C54.3228 18.4403 54.8024 28.6818 55.7106 32.8709C56.0077 34.2291 57.3574 35.044 58.6519 34.5304C58.6689 34.5219 58.6859 34.5177 58.7071 34.5092C58.9787 34.3946 59.1825 34.1527 59.2546 33.8683C59.3735 33.4269 59.4711 32.646 59.2037 31.5891C59.1146 31.2453 59.0721 30.8931 59.0382 30.5365L57.9389 18.6992C57.7988 17.1925 57.2004 15.7452 56.1436 14.6587C55.4093 13.8989 54.6326 13.5721 54.3143 15.0024C54.2294 15.3887 54.2082 15.7834 54.2251 16.1739V16.1781Z" fill="white"/>
<path d="M53.1385 0.851994C53.6224 0.359656 54.3651 -0.0775055 55.4687 0.0116246C56.343 0.0837776 57.1494 0.508207 57.7648 1.12787C57.8285 1.19154 57.8921 1.25945 57.9516 1.32735C58.3251 1.75603 58.4948 2.34598 58.3123 2.88501C58.1086 3.50043 57.472 4.17952 55.5875 3.83997C55.4644 3.81875 55.3371 3.80602 55.2097 3.81026C54.9211 3.823 54.3057 3.81875 53.72 3.61503C52.5613 3.21182 52.2769 1.72632 53.1385 0.851994Z" fill="white"/>
<path d="M84.0327 29.3269C84.4486 28.9577 84.9495 28.686 85.4885 28.5417C86.1548 28.3635 86.7406 28.4441 85.9299 29.7386C85.9299 29.7386 82.7467 35.5703 72.9806 34.7214C72.8532 34.7087 72.7259 34.7044 72.6028 34.696C71.754 34.6578 67.4927 34.1824 65.621 28.3295C64.5854 25.0869 64.8358 21.5811 66.0751 18.4064C67.3951 15.0322 69.7846 11.102 73.6257 11.9169C75.5993 12.337 76.6222 14.1494 75.7266 15.9574C75.6927 16.0253 75.6587 16.089 75.6205 16.1527C75.3361 16.611 74.6783 16.645 74.3133 16.2503L74.2963 16.2333C73.736 15.6349 72.7938 15.5245 72.1657 16.0508C72.1062 16.1017 72.0426 16.1569 71.9832 16.2206C71.9832 16.2206 66.7797 20.7662 68.1718 26.1225C68.957 29.1359 71.6776 31.2581 74.7844 31.4915C77.5984 31.7037 81.5625 31.5212 84.0285 29.3312L84.0327 29.3269Z" fill="white"/>
<path d="M87.3771 18.9369C87.3771 18.9369 83.0394 7.5452 88.9093 8.81849C88.9093 8.81849 91.0357 8.81849 90.5264 18.9369L98.3274 20.6558C98.7221 20.7407 99.0744 20.9826 99.2526 21.3434C99.4139 21.666 99.4139 22.0395 98.773 22.2517L91.9779 21.8824C91.9779 21.8824 91.2903 22.031 91.7996 24.3526C91.7996 24.3526 92.2029 27.7268 93.6629 29.1359C94.2274 29.6792 94.5924 30.4177 94.5499 31.2029C94.5202 31.7207 94.3462 32.247 93.8539 32.5908C93.2087 33.0364 92.3174 32.8964 91.7827 32.3276C90.8065 31.2878 89.1003 28.6393 87.6317 22.0861L82.5641 22.014C81.8213 22.0013 81.0828 21.8697 80.4037 21.5726C79.5124 21.1864 78.7994 20.554 80.5098 19.756C81.1932 19.4377 81.9402 19.2722 82.6914 19.2255L87.3771 18.9411V18.9369Z" fill="white"/>
<path d="M104.613 19.4123C104.613 19.4123 102.716 20.38 101.999 22.9944C100.543 28.2743 104.579 33.4312 109.965 32.4507C110.021 32.4422 110.076 32.4295 110.131 32.421C110.131 32.421 120.419 30.9525 115.271 20.8468C115.271 20.8468 115.271 15.3505 117.44 17.4259C117.44 17.4259 121.395 25.3755 118.301 30.9695C118.093 31.343 118.301 30.9695 117.495 31.9669C116.548 33.1383 113.925 36.1772 106.948 35.7825C104.843 35.6636 102.805 34.8869 101.265 33.4481C99.5372 31.8353 97.9795 29.1232 98.6586 24.7431C98.6586 24.7431 100.195 14.5356 107.147 13.6315C107.147 13.6315 109.957 13.1265 113.166 18.7586C113.382 19.1364 113.535 19.5523 113.59 19.9852C113.679 20.6601 113.548 21.4538 112.346 21.2118C111.769 21.0972 111.251 20.7789 110.84 20.3545C109.919 19.408 107.797 17.5023 106.417 18.33L104.609 19.4123H104.613Z" fill="white"/>
<path d="M120.466 26.9713C120.775 27.4594 120.988 27.9942 121.255 28.5078C122.337 30.5917 124.252 33.8895 126.565 33.5924C126.565 33.5924 129.094 33.8641 126.565 29.2548L124.999 26.0758C124.273 24.6073 123.903 22.9775 124.022 21.3434C124.188 19.026 125.291 16.3224 129.455 16.0677H135.338C136.089 16.0677 136.819 15.7155 137.209 15.0746C137.536 14.5398 137.536 13.9286 136.229 13.6145C136.229 13.6145 125.283 12.5365 122.592 15.5245C122.592 15.5245 117.601 22.4809 120.47 26.9671L120.466 26.9713Z" fill="white"/>
<path d="M133.305 33.55C133.275 33.5839 133.127 33.7198 133.101 33.7537C132.902 34.0126 132.214 35.1119 133.517 35.8164C133.517 35.8164 140.758 38.1084 146.649 36.4319C147.875 36.0838 149.174 35.9013 150.078 35.0058C151.22 33.8726 152.285 32.0433 150.532 29.9339C150.159 29.4882 149.7 29.1189 149.208 28.8091L138.3 21.9376C138.3 21.9376 136.429 20.919 138.177 19.425C138.576 19.0812 139.756 18.5592 140.024 18.4912C140.855 18.2833 140.605 18.1899 142.621 18.0541C143.529 17.9947 145.019 17.9692 145.927 17.9862C146.237 17.9947 146.551 17.9947 146.865 17.9904C148.1 17.9734 149.191 17.0779 149.323 15.8471C149.399 15.1467 149.166 14.4846 148.151 14.2554C148.151 14.2554 144.153 13.9965 141.191 14.0178C138.585 14.0347 136.148 15.4905 135.07 17.8631C134.629 18.835 134.391 19.9895 134.608 21.2967C134.778 22.3026 135.342 23.1939 136.119 23.8475C138.436 25.7957 144.234 30.5578 146.522 31.4151C146.522 31.4151 148.508 32.4974 147.065 33.2232C147.065 33.2232 134.077 32.6332 133.305 33.5415V33.55Z" fill="white"/>
<path d="M164.589 19.6796C164.589 19.6796 154.008 23.5165 157.005 31.5552C157.391 32.595 158.537 33.1425 159.645 33.1171C162.421 33.0449 167.849 32.1536 170.956 26.6488C171.656 25.4094 171.983 23.9961 171.974 22.5742C171.949 17.532 172.119 3.64471 174.703 3.424C174.703 3.424 176.418 2.70247 176.329 6.04273V24.9468C176.329 26.1012 176.541 27.2557 177.012 28.3125C177.882 30.2564 179.852 32.5526 184.3 32.3658C184.847 32.3446 185.395 32.5611 185.734 32.994C186.239 33.6391 186.142 34.5856 182.021 35.0355C182.021 35.0355 175.697 35.6679 174.525 29.8872C174.525 29.8872 173.893 25.1887 172.085 28.0791C172.085 28.0791 170.098 32.2003 164.462 34.9294C162.9 35.6849 161.19 36.1305 159.454 36.0796C157.34 36.0202 154.734 35.2944 153.737 32.3319C153.418 31.3854 153.363 30.371 153.482 29.3778C153.826 26.5596 155.409 19.9555 162.637 16.8869C164.462 16.1102 166.554 16.0975 168.333 16.9718C170.103 17.8419 171.567 19.5099 169.666 22.6549C169.666 22.6549 169.572 24.2677 167.79 21.1948C167.301 20.3545 166.47 19.7306 165.506 19.6032C165.196 19.5608 164.882 19.5735 164.589 19.6711V19.6796Z" fill="white"/>
<path d="M206.035 13.831C205.555 12.6766 204.053 12.4516 203.229 13.3939C201.986 14.8199 200.836 18.3639 203.874 27.0859C203.874 27.0859 208.934 40.3621 218.237 30.6087C218.237 30.6087 225.1 44.6997 237.837 38.6474C237.837 38.6474 238.703 37.9259 236.441 37.5142C235.97 37.4293 235.49 37.3911 235.006 37.3741C233.003 37.3104 225.261 36.6441 222.104 30.2946C221.679 29.4458 221.484 28.4993 221.484 27.5486V17.4896C221.484 16.5983 221.378 15.7112 221.123 14.8581C220.758 13.64 220.066 12.2819 218.823 12.6002C218.19 12.7615 217.741 13.3217 217.643 13.9668C217.401 15.5118 216.968 19.2467 217.388 24.412C217.409 24.7006 217.367 24.9893 217.252 25.2524C216.713 26.4832 214.897 29.9763 211.641 29.9805C211.641 29.9805 207.35 30.8209 206.531 21.2925C206.429 20.1126 206.408 18.9242 206.476 17.74C206.536 16.7341 206.531 15.0449 206.031 13.831H206.035Z" fill="white"/>
<path d="M200.878 18.5294C203.908 23.5334 201.837 28.1979 201.837 28.1979C199.724 32.1663 195.997 33.2529 193.272 33.4693C190.802 33.6688 188.366 32.7011 186.77 30.8039C182.521 25.7447 185.616 18.5846 187.568 15.1297C188.553 13.3853 190.182 12.0484 192.139 11.607C196.604 10.5968 198.964 14.6119 199.825 16.5473C200.131 17.2307 200.488 17.8843 200.878 18.5252V18.5294ZM198.904 20.3545C198.45 18.8647 197.606 17.5235 196.494 16.4327C194.787 14.7605 191.961 13.101 189.788 17.3325C189.788 17.3325 187.084 21.4198 188.149 26.0545C188.828 28.9916 191.749 30.927 194.643 30.0866C196.018 29.6877 197.504 28.2786 198.336 26.81C198.985 25.6598 199.176 25.176 199.274 24.7473C199.537 23.5971 199.66 22.8204 198.904 20.3502V20.3545Z" fill="white"/>
<path d="M10.5853 12.4856C11.6548 12.129 12.6862 11.9508 13.6836 11.9508C16.175 11.9508 17.8854 12.5917 18.8149 13.8735C19.2436 14.4464 19.8123 15.7961 20.5254 17.9352C21.2384 20.0744 21.5949 21.5004 21.5949 22.2092C21.5949 23.4231 21.0941 24.5436 20.0967 25.575C19.0993 26.6063 18.0297 27.1241 16.8923 27.1241H16.4636C15.6063 27.052 14.7871 27.3363 14.0062 27.9772C12.0835 29.6877 10.373 30.5408 8.87481 30.5408C6.95215 30.5408 5.98869 29.4373 5.98869 27.226C5.98869 26.7294 6.06085 25.9782 6.20091 24.9808C6.8418 21.7763 8.51405 19.9555 11.2219 19.5311C12.1472 19.391 12.6989 19.3359 12.8772 19.3698C13.0554 19.408 13.1446 19.6754 13.1446 20.172C13.1446 20.8129 12.8602 21.1354 12.2915 21.1354C11.3662 21.1354 10.4749 21.7211 9.61756 22.9011C8.76021 24.0767 8.33579 25.2694 8.33579 26.479C8.33579 26.9077 8.36974 27.192 8.44189 27.3363C8.5098 27.8372 8.79841 28.0833 9.295 28.0833C10.008 28.0833 10.8611 27.6547 11.8585 26.8016C12.7838 25.9485 13.2464 25.0911 13.2464 24.238V23.5971C13.1743 22.3153 13.3865 21.5684 13.8873 21.3519C14.3839 21.2118 14.8677 21.3349 15.3304 21.7254C15.793 22.1201 16.0264 22.5997 16.0264 23.1684C16.0264 23.9536 16.383 24.3441 17.096 24.3441C17.5247 24.3441 18.0213 24.1659 18.5942 23.8093C19.3794 23.3807 19.7699 22.7398 19.7699 21.8867C19.7699 21.1736 19.3794 19.9258 18.5942 18.1475C17.3804 15.5839 15.9585 14.2979 14.3202 14.2979C13.8194 14.2979 13.4289 14.3361 13.1446 14.404C11.7185 14.6162 10.2075 15.117 8.60318 15.9022C6.99884 16.6874 5.9123 17.4684 5.34356 18.2536C3.63311 20.7492 2.78001 23.5632 2.78001 26.6955C2.78001 31.3981 4.41831 34.4286 7.6949 35.7782C8.62015 36.1348 10.6489 36.313 13.7855 36.313C18.8446 36.313 22.1212 35.9905 23.6195 35.3496C24.4768 34.993 25.0456 34.8148 25.3299 34.8148C25.6864 34.8148 25.8647 34.9591 25.8647 35.2435C25.8647 35.9565 24.9013 36.8138 22.9786 37.807C21.5525 38.52 18.989 38.9105 15.2837 38.9827H13.6793C10.1863 38.9827 7.67792 38.7323 6.14573 38.2357C4.61354 37.7391 3.27659 36.7035 2.13912 35.1373C0.713041 33.2868 0 30.579 0 27.0138C0 22.4554 1.10352 18.8902 3.31479 16.3267C4.3122 15.117 6.73569 13.8353 10.581 12.4813L10.5853 12.4856Z" fill="white"/>
</svg>
